<svg width="40" height="40" fill="none" xmlns="http://www.w3.org/2000/svg">
    <circle class="circle" cx="20" cy="20" r="20" fill="#fff"/>
    <path d="M27.25 11h-14.5A2.753 2.753 0 0010 13.75v8.874a2.753 2.753 0 002.74 2.75V29.4l5.787-4.027h8.723a2.753 2.753 0 002.75-2.75V13.75A2.753 2.753 0 0027.25 11zm1.578 11.624a1.58 1.58 0 01-1.578 1.578h-9.09l-4.248 2.955v-2.956H12.75a1.58 1.58 0 01-1.578-1.577V13.75c0-.87.708-1.578 1.578-1.578h14.5c.87 0 1.578.707 1.578 1.578v8.874z"
          fill="#ABABAB"/>
    <path d="M15.353 15.14h9.294v1.173h-9.294V15.14zM15.353 17.64h9.294v1.173h-9.294V17.64zM15.353 20.14h9.294v1.173h-9.294V20.14z"
          fill="#ABABAB"/>
</svg>
